Coordinates
version=1
nRows=4
nColumns=63
inDegrees=yes

Units are S.I. units (second, meters, Newtons, ...)
If the header above contains a line with 'inDegrees', this indicates whether rotational values are in degrees (yes) or radians (no).

endheader
time	pelvis_tilt	pelvis_list	pelvis_rotation	pelvis_tx	pelvis_ty	pelvis_tz	hip_flexion_r	hip_adduction_r	hip_rotation_r	knee_angle_r	knee_angle_r_beta	ankle_angle_r	subtalar_angle_r	mtp_angle_r	hip_flexion_l	hip_adduction_l	hip_rotation_l	knee_angle_l	knee_angle_l_beta	ankle_angle_l	subtalar_angle_l	mtp_angle_l	L5_S1_Flex_Ext	L5_S1_Lat_Bending	L5_S1_axial_rotation	L4_L5_Flex_Ext	L4_L5_Lat_Bending	L4_L5_axial_rotation	L3_L4_Flex_Ext	L3_L4_Lat_Bending	L3_L4_axial_rotation	L2_L3_Flex_Ext	L2_L3_Lat_Bending	L2_L3_axial_rotation	L1_L2_Flex_Ext	L1_L2_Lat_Bending	L1_L2_axial_rotation	L1_T12_Flex_Ext	L1_T12_Lat_Bending	L1_T12_axial_rotation	Abs_r3	Abs_r2	Abs_r1	Abs_t1	Abs_t2	neck_flexion	neck_bending	neck_rotation	arm_flex_r	arm_add_r	arm_rot_r	elbow_flex_r	pro_sup_r	wrist_flex_r	wrist_dev_r	arm_flex_l	arm_add_l	arm_rot_l	elbow_flex_l	pro_sup_l	wrist_flex_l	wrist_dev_l
      6.42592593	      1.85817373	      5.80964239	     74.76868557	      0.21458224	      0.95566560	      0.53992196	      3.10504608	      5.99183133	      6.90842215	     17.28739076	      0.30172189	     36.83530815	    -13.45298010	      0.00000000	     -3.24207509	     -5.97594775	      5.06489237	      5.31496377	      0.09276362	     40.17972377	     14.54391601	      0.00000000	      0.01313570	      0.46455101	     -0.01276780	      0.02439430	      0.61785284	     -0.01356579	      0.02158063	      1.12950932	     -0.01356579	      0.01501279	      1.12950932	     -0.01117183	      0.01219781	      0.94731242	     -0.01037384	      0.00750574	      0.71958951	     -0.00957585	      0.09382696	      5.25509392	     -0.07101069	      0.00000000	      0.00000000	     12.73273694	      4.17508925	     -8.99691258	     69.19141050	    -37.79929636	     10.03620168	    102.95865197	     79.42391301	    -16.22708048	     -3.96166803	     31.62134805	    -24.46016119	     -0.84165580	    119.27076513	     87.67486816	    -17.09806632	    -11.75881899
      6.44444444	      1.87293309	      5.85789632	     74.21597515	      0.21435961	      0.95648871	      0.53948436	      2.83480877	      5.86474234	      6.75355746	     16.93874079	      0.29563680	     36.04942776	    -13.38563089	      0.00000000	     -3.58988934	     -5.84745171	      5.10494418	      4.92444686	      0.08594781	     39.87561395	     14.36390148	      0.00000000	      0.04676955	      0.53877282	      0.04512144	      0.08685573	      0.71656785	      0.04794153	      0.07683770	      1.30997223	      0.04794153	      0.05345292	      1.30997223	      0.03948126	      0.04343021	      1.09866553	      0.03666117	      0.02672412	      0.83455909	      0.03384108	      0.33407023	      6.09470586	      0.25095193	      0.00000000	      0.00000000	     12.78422829	      3.77970288	     -7.28323359	     66.74034866	    -37.33542894	     11.74634808	    102.01277873	     78.95691158	    -16.38795960	     -3.79682895	     35.94087131	    -26.86962479	     -1.43331373	    121.59683196	     88.49653223	    -16.66318001	    -12.48081745
      6.46296296	      1.95153840	      5.92540869	     73.47418396	      0.21405071	      0.95727746	      0.53773416	      2.30866383	      5.83247876	      7.53440839	     16.31395587	      0.28473224	     35.21021638	    -14.03073502	      0.00000000	     -4.37104260	     -5.66247075	      6.52507236	      4.01608513	      0.07009391	     39.12535346	     12.23459770	      0.00000000	      0.06937570	      0.68658441	     -0.08944508	      0.12883761	      0.91315726	     -0.09503539	      0.11397733	      1.66936133	     -0.09503539	      0.07928948	      1.66936133	     -0.07826444	      0.06442227	      1.40008293	     -0.07267413	      0.03964127	      1.06351925	     -0.06708381	      0.49554366	      7.76678015	     -0.49746669	      0.00000000	      0.00000000	     13.42463894	      3.70806699	      0.26267692	     66.45108847	    -35.43291353	     16.07935758	    100.22929423	     74.77282635	    -16.18871946	     -2.38907218	     38.56663137	    -29.82960940	     -4.79377601	    124.14784891	     88.82853039	    -16.48023667	    -14.02093987
      6.48148148	      1.90018355	      5.96888813	     72.95774932	      0.21411917	      0.95778256	      0.53587888	      1.87997270	      5.64769197	      7.73914193	     15.76355077	      0.27512586	     34.69609739	    -14.02681075	      0.00000000	     -4.86070742	     -5.44878455	      6.79680261	      3.50422404	      0.06116025	     38.70515824	     11.55741011	      0.00000000	      0.08513527	      0.76215204	     -0.08828627	      0.15810472	      1.01366221	     -0.09380416	      0.13986874	      1.85309647	     -0.09380416	      0.09730111	      1.85309647	     -0.07725049	      0.07905662	      1.55418044	     -0.07173259	      0.04864630	      1.18057351	     -0.06621470	      0.60811275	      8.62161629	     -0.49102175	      0.00000000	      0.00000000	     15.21814250	      2.75495995	      2.21795056	     65.03398312	    -34.81275774	     18.27394012	     99.18418493	     74.20123995	    -15.63548896	     -0.42928380	     42.99842397	    -32.35850097	     -6.55078318	    125.80878621	     88.92709750	    -16.03326409	    -12.94687283
